<?xml version="1.0" encoding="UTF-8" standalone="no"?>
<!DOCTYPE svg PUBLIC "-//W3C//DTD SVG 1.1//EN" "http://www.w3.org/Graphics/SVG/1.1/DTD/svg11.dtd">
<svg width="100%" height="100%" viewBox="0 0 50 50" version="1.1" xmlns="http://www.w3.org/2000/svg" xmlns:xlink="http://www.w3.org/1999/xlink" xml:space="preserve" xmlns:serif="http://www.serif.com/" style="fill-rule:evenodd;clip-rule:evenodd;stroke-linecap:round;stroke-linejoin:round;stroke-miterlimit:1.41421;">
    <rect id="cloudyNight" x="0" y="0" width="50" height="50" style="fill:none;"/>
    <g id="cloudyNight1" serif:id="cloudyNight">
        <g id="cloudyNight2" serif:id="cloudyNight" transform="matrix(1,0,0,1,0.666667,1.66667)">
            <g transform="matrix(1,0,0,1,-0.666667,-1.66667)">
                <path d="M13.628,35.486C11.416,35.296 9.208,34.64 7.149,33.478C5.822,32.73 4.643,31.819 3.623,30.786C3.318,30.471 3.245,29.997 3.443,29.605C3.64,29.213 4.063,28.988 4.499,29.046C9.962,29.557 15.47,26.885 18.339,21.798C21.366,16.431 20.572,9.942 16.837,5.477C16.546,5.16 16.489,4.695 16.693,4.317C16.896,3.938 17.317,3.731 17.741,3.799C19.5,4.084 21.234,4.688 22.874,5.613C27.911,8.456 30.815,13.626 31,19.017L30.974,19.016C30.069,19.016 29.188,19.116 28.34,19.303C28.252,14.741 25.823,10.339 21.563,7.936L21.415,7.854C23.501,12.605 23.404,18.246 20.661,23.108C18.105,27.64 13.783,30.554 9.043,31.467C10.837,32.366 12.747,32.823 14.644,32.873C14.183,33.677 13.837,34.555 13.628,35.486Z" style="fill:white;"/>
            </g>
            <g transform="matrix(-0.904918,0,0,0.904918,57.4546,8.73984)">
                <path d="M22,35.996C21.917,35.999 21.834,36 21.75,36C17.749,36 14.5,32.751 14.5,28.75C14.5,24.964 17.408,21.852 21.11,21.528C21.785,17.228 25.511,13.935 30,13.935C34.967,13.935 39,17.968 39,22.935C39,23.296 38.979,23.651 38.937,24C38.958,24 38.979,24 39,24C42.311,24 45,26.689 45,30C45,33.311 42.311,36 39,36L22,36L22,35.996Z" style="fill:none;stroke:white;stroke-width:2.95px;"/>
            </g>
        </g>
    </g>
</svg>
