<?xml version="1.0" encoding="UTF-8" standalone="no"?>
<!DOCTYPE svg PUBLIC "-//W3C//DTD SVG 1.1//EN" "http://www.w3.org/Graphics/SVG/1.1/DTD/svg11.dtd">
<svg width="100%" height="100%" viewBox="0 0 50 50" version="1.1" xmlns="http://www.w3.org/2000/svg" xmlns:xlink="http://www.w3.org/1999/xlink" xml:space="preserve" xmlns:serif="http://www.serif.com/" style="fill-rule:evenodd;clip-rule:evenodd;stroke-linejoin:round;stroke-miterlimit:2;">
    <rect id="cloudy" x="0" y="0" width="50" height="50" style="fill:none;"/>
    <g id="cloudy1" serif:id="cloudy">
        <g id="cloudy2" serif:id="cloudy" transform="matrix(1,0,0,1,-0.333333,0.666667)">
            <path d="M29.842,12.793L29.77,12.793C24.594,12.793 20.242,16.354 19.034,21.157C14.835,21.999 11.667,25.71 11.667,30.156C11.667,35.221 15.779,39.333 20.844,39.333L39.508,39.333C43.827,39.333 47.333,35.827 47.333,31.508C47.333,27.644 44.526,24.43 40.841,23.797C40.805,17.741 35.897,12.831 29.842,12.793ZM29.672,15.46C25.525,15.508 22.095,18.565 21.469,22.549C21.373,23.154 20.878,23.617 20.268,23.67C16.944,23.961 14.333,26.756 14.333,30.156C14.333,33.749 17.251,36.667 20.844,36.667L39.508,36.667C42.355,36.667 44.667,34.355 44.667,31.508C44.667,28.661 42.355,26.35 39.508,26.35C39.491,26.35 39.473,26.35 39.456,26.35C39.072,26.354 38.705,26.193 38.449,25.908C38.193,25.623 38.071,25.241 38.116,24.86C38.155,24.534 38.175,24.201 38.175,23.864C38.175,19.225 34.409,15.46 29.77,15.46L29.672,15.46Z" style="fill:white;"/>
            <path d="M9.043,31.17C9.015,30.836 9,30.498 9,30.156C9,29.574 9.042,29.002 9.123,28.442C6.932,27.784 5.333,25.749 5.333,23.344C5.333,20.565 7.467,18.281 10.184,18.042C10.795,17.989 11.29,17.526 11.385,16.921C11.905,13.611 14.774,11.077 18.23,11.077C19.73,11.077 21.119,11.555 22.254,12.367C23.058,11.839 23.921,11.394 24.83,11.043C23.11,9.412 20.786,8.41 18.23,8.41C13.787,8.41 10.046,11.436 8.955,15.537C5.362,16.317 2.667,19.518 2.667,23.344C2.667,27.201 5.406,30.423 9.043,31.17Z" style="fill:white;"/>
        </g>
    </g>
</svg>
