<?xml version="1.0" encoding="UTF-8" standalone="no"?>
<!DOCTYPE svg PUBLIC "-//W3C//DTD SVG 1.1//EN" "http://www.w3.org/Graphics/SVG/1.1/DTD/svg11.dtd">
<svg width="100%" height="100%" viewBox="0 0 50 50" version="1.1" xmlns="http://www.w3.org/2000/svg" xmlns:xlink="http://www.w3.org/1999/xlink" xml:space="preserve" xmlns:serif="http://www.serif.com/" style="fill-rule:evenodd;clip-rule:evenodd;stroke-linejoin:round;stroke-miterlimit:2;">
    <rect id="moon" x="0" y="0" width="50" height="50" style="fill:none;"/>
    <g id="moon1" serif:id="moon">
        <g id="moon2" serif:id="moon" transform="matrix(1,0,0,1,0,-1)">
            <g transform="matrix(1.33333,0,0,1.33333,8.88178e-16,-10.6667)">
                <path d="M13.074,23.283C13.146,23.111 13.314,23 13.5,23C13.686,23 13.854,23.111 13.926,23.283L14.925,25.652C14.965,25.746 15.023,25.832 15.095,25.905C15.168,25.977 15.254,26.035 15.348,26.075L17.717,27.074C17.889,27.146 18,27.314 18,27.5C18,27.686 17.889,27.854 17.717,27.926L15.348,28.925C15.254,28.965 15.168,29.023 15.095,29.095C15.023,29.168 14.965,29.254 14.925,29.348L13.926,31.717C13.854,31.889 13.686,32 13.5,32C13.314,32 13.146,31.889 13.074,31.717L12.075,29.348C12.035,29.254 11.977,29.168 11.905,29.095C11.832,29.023 11.746,28.965 11.652,28.925L9.283,27.926C9.111,27.854 9,27.686 9,27.5C9,27.314 9.111,27.146 9.283,27.074L11.652,26.075C11.746,26.035 11.832,25.977 11.905,25.905C11.977,25.832 12.035,25.746 12.075,25.652L13.074,23.283Z" style="fill:white;"/>
            </g>
            <g transform="matrix(0.888889,0,0,0.888889,-4,-7.44444)">
                <path d="M13.216,23.198C13.26,23.079 13.373,23 13.5,23C13.627,23 13.74,23.079 13.784,23.198L14.686,25.643C14.743,25.796 14.833,25.936 14.948,26.052C15.064,26.167 15.204,26.257 15.357,26.314L17.802,27.216C17.921,27.26 18,27.373 18,27.5C18,27.627 17.921,27.74 17.802,27.784L15.357,28.686C15.204,28.743 15.064,28.833 14.948,28.948C14.833,29.064 14.743,29.204 14.686,29.357L13.784,31.802C13.74,31.921 13.627,32 13.5,32C13.373,32 13.26,31.921 13.216,31.802L12.314,29.357C12.257,29.204 12.167,29.064 12.052,28.948C11.936,28.833 11.796,28.743 11.643,28.686L9.198,27.784C9.079,27.74 9,27.627 9,27.5C9,27.373 9.079,27.26 9.198,27.216L11.643,26.314C11.796,26.257 11.936,26.167 12.052,26.052C12.167,25.936 12.257,25.796 12.314,25.643L13.216,23.198Z" style="fill:white;"/>
            </g>
            <g transform="matrix(0.996195,0.0871557,-0.0871557,0.996195,0.121346,-2.53838)">
                <path d="M28.265,7.821C27.938,7.539 27.824,7.082 27.981,6.68C28.138,6.279 28.531,6.02 28.962,6.034C31.421,6.137 33.898,6.712 36.274,7.792C46.323,12.358 50.775,24.225 46.208,34.274C41.642,44.323 29.775,48.775 19.726,44.208C17.759,43.315 16.007,42.141 14.495,40.757C14.176,40.457 14.08,39.988 14.257,39.587C14.434,39.187 14.844,38.941 15.28,38.974C22.376,39.268 29.273,35.304 32.389,28.442C35.671,21.217 33.773,12.949 28.265,7.821ZM33.132,9.443C33.819,9.656 34.499,9.914 35.171,10.22C43.88,14.177 47.738,24.461 43.78,33.171C39.823,41.88 29.539,45.738 20.829,41.78C20.494,41.628 20.166,41.466 19.845,41.295C26.221,40.09 31.932,35.9 34.817,29.545C37.894,22.771 37.005,15.198 33.132,9.443Z" style="fill:white;"/>
            </g>
        </g>
    </g>
</svg>
