<?xml version="1.0" encoding="UTF-8" standalone="no"?>
<!DOCTYPE svg PUBLIC "-//W3C//DTD SVG 1.1//EN" "http://www.w3.org/Graphics/SVG/1.1/DTD/svg11.dtd">
<svg width="100%" height="100%" viewBox="0 0 50 50" version="1.1" xmlns="http://www.w3.org/2000/svg" xmlns:xlink="http://www.w3.org/1999/xlink" xml:space="preserve" xmlns:serif="http://www.serif.com/" style="fill-rule:evenodd;clip-rule:evenodd;stroke-linejoin:round;stroke-miterlimit:2;">
    <rect id="pop" x="0" y="0" width="50" height="50" style="fill:none;"/>
    <g id="pop1" serif:id="pop">
        <g transform="matrix(3.00612e-32,-1.67236,-1.67236,3.00612e-32,36.0163,21.0169)">
            <path d="M-8.76,-4.99L-8.76,-5.173L-7.165,-5.173C-5.171,-5.173 -1.075,-3.329 2.929,0.656L4.062,1.784L2.931,2.914C-1.073,6.916 -5.17,8.76 -7.165,8.76C-11.019,8.76 -14.142,5.643 -14.142,1.786C-14.142,-1.506 -11.845,-4.27 -8.76,-4.99ZM-7.165,-3.578C-10.138,-3.578 -12.547,-1.174 -12.547,1.786C-12.547,4.761 -10.138,7.165 -7.165,7.165C-5.377,7.165 -1.786,5.374 1.804,1.786C-1.786,-1.787 -5.377,-3.578 -7.165,-3.578Z" style="fill:white;"/>
        </g>
        <g transform="matrix(1.50306e-32,-0.836179,-0.836179,1.50306e-32,13.9912,11.5085)">
            <path d="M4.054,-0.474L6.32,1.781L4.058,4.042C-0.362,8.459 -4.964,10.354 -7.165,10.354C-11.9,10.354 -15.736,6.524 -15.736,1.786C-15.736,-2.857 -12.021,-6.647 -7.386,-6.764L-7.165,-6.767C-4.964,-6.767 -0.365,-4.872 4.054,-0.474ZM-7.165,-3.578C-10.138,-3.578 -12.547,-1.174 -12.547,1.786C-12.547,4.761 -10.138,7.165 -7.165,7.165C-5.377,7.165 -1.786,5.374 1.804,1.786C-1.786,-1.787 -5.377,-3.578 -7.165,-3.578Z" style="fill:white;"/>
        </g>
    </g>
</svg>
