<?xml version="1.0" encoding="UTF-8" standalone="no"?>
<!DOCTYPE svg PUBLIC "-//W3C//DTD SVG 1.1//EN" "http://www.w3.org/Graphics/SVG/1.1/DTD/svg11.dtd">
<svg width="100%" height="100%" viewBox="0 0 50 50" version="1.1" xmlns="http://www.w3.org/2000/svg" xmlns:xlink="http://www.w3.org/1999/xlink" xml:space="preserve" xmlns:serif="http://www.serif.com/" style="fill-rule:evenodd;clip-rule:evenodd;stroke-linejoin:round;stroke-miterlimit:2;">
    <rect id="sunnyCloudy" x="0" y="0" width="50" height="50" style="fill:none;"/>
    <g id="sunnyCloudy1" serif:id="sunnyCloudy">
        <g id="sunnyCloudy2" serif:id="sunnyCloudy" transform="matrix(1,0,0,1,0.666667,1.66667)">
            <g transform="matrix(1,0,0,1,0,2)">
                <path d="M29.842,12.793L29.77,12.793C24.594,12.793 20.242,16.354 19.034,21.157C14.835,21.999 11.667,25.71 11.667,30.156C11.667,35.221 15.779,39.333 20.844,39.333L39.508,39.333C43.827,39.333 47.333,35.827 47.333,31.508C47.333,27.644 44.526,24.43 40.841,23.797C40.805,17.741 35.897,12.831 29.842,12.793ZM29.672,15.46C25.525,15.508 22.095,18.565 21.469,22.549C21.373,23.154 20.878,23.617 20.268,23.67C16.944,23.961 14.333,26.756 14.333,30.156C14.333,33.749 17.251,36.667 20.844,36.667L39.508,36.667C42.355,36.667 44.667,34.355 44.667,31.508C44.667,28.661 42.355,26.35 39.508,26.35C39.491,26.35 39.473,26.35 39.456,26.35C39.072,26.354 38.705,26.193 38.449,25.908C38.193,25.623 38.071,25.241 38.116,24.86C38.155,24.534 38.175,24.201 38.175,23.864C38.175,19.225 34.409,15.46 29.77,15.46L29.672,15.46Z" style="fill:white;"/>
            </g>
            <path d="M9,32.138C8.27,32.407 7.333,32.63 6.27,32.726C6.457,30.698 7.104,29.129 7.655,28.578C8.279,27.954 9.108,27.697 9.814,27.836C9.291,29.169 9.002,30.62 9,32.138ZM10.853,25.797C9.686,24.161 9,22.16 9,20C9,14.481 13.481,10 19,10C21.641,10 24.044,11.026 25.832,12.7C24.732,13.03 23.689,13.493 22.723,14.073C21.644,13.393 20.368,13 19,13C15.137,13 12,16.137 12,20C12,21.232 12.319,22.389 12.878,23.395C12.102,24.101 11.42,24.909 10.853,25.797ZM4.913,18.043C6.21,18.043 7.261,18.919 7.261,19.997C7.261,21.081 6.21,21.957 4.913,21.957C4.133,21.957 2.566,21.304 1,19.997C2.566,18.696 4.133,18.043 4.913,18.043ZM10.422,8.655C11.34,9.573 11.463,10.935 10.701,11.697C9.935,12.463 8.573,12.34 7.655,11.422C7.104,10.871 6.457,9.302 6.274,7.27C8.302,7.457 9.871,8.104 10.422,8.655ZM28.402,12.194C27.986,12.16 27.599,11.997 27.303,11.701C26.537,10.935 26.66,9.573 27.578,8.655C28.129,8.104 29.698,7.457 31.73,7.274C31.543,9.302 30.896,10.871 30.345,11.422C29.968,11.799 29.516,12.042 29.062,12.144C28.84,12.156 28.62,12.172 28.402,12.194ZM20.957,5.913C20.957,7.21 20.081,8.261 19.003,8.261C17.919,8.261 17.043,7.21 17.043,5.913C17.043,5.133 17.696,3.566 19.003,2C20.304,3.566 20.957,5.133 20.957,5.913Z" style="fill:white;"/>
            <path d="M9,32.138C8.27,32.407 7.333,32.63 6.27,32.726C6.457,30.698 7.104,29.129 7.655,28.578C8.279,27.954 9.108,27.697 9.814,27.836C9.291,29.169 9.002,30.62 9,32.138ZM10.853,25.797C9.686,24.161 9,22.16 9,20C9,14.481 13.481,10 19,10C21.641,10 24.044,11.026 25.832,12.7C24.732,13.03 23.689,13.493 22.723,14.073C21.644,13.393 20.368,13 19,13C15.137,13 12,16.137 12,20C12,21.232 12.319,22.389 12.878,23.395C12.102,24.101 11.42,24.909 10.853,25.797ZM4.913,18.043C6.21,18.043 7.261,18.919 7.261,19.997C7.261,21.081 6.21,21.957 4.913,21.957C4.133,21.957 2.566,21.304 1,19.997C2.566,18.696 4.133,18.043 4.913,18.043ZM3.561,18.805C3.36,19.167 3.261,19.599 3.261,19.997C3.261,20.394 3.359,20.825 3.558,21.188L3.561,18.805ZM10.422,8.655C11.34,9.573 11.463,10.935 10.701,11.697C9.935,12.463 8.573,12.34 7.655,11.422C7.104,10.871 6.457,9.302 6.274,7.27C8.302,7.457 9.871,8.104 10.422,8.655ZM28.402,12.194C27.986,12.16 27.599,11.997 27.303,11.701C26.537,10.935 26.66,9.573 27.578,8.655C28.129,8.104 29.698,7.457 31.73,7.274C31.543,9.302 30.896,10.871 30.345,11.422C29.968,11.799 29.516,12.042 29.062,12.144C28.84,12.156 28.62,12.172 28.402,12.194ZM29.112,8.274L30.762,9.928C30.648,9.529 30.413,9.154 30.131,8.873C29.843,8.584 29.496,8.377 29.112,8.274ZM8.928,8.238C8.529,8.352 8.154,8.587 7.873,8.869C7.592,9.149 7.357,9.523 7.241,9.921L8.928,8.238ZM20.957,5.913C20.957,7.21 20.081,8.261 19.003,8.261C17.919,8.261 17.043,7.21 17.043,5.913C17.043,5.133 17.696,3.566 19.003,2C20.304,3.566 20.957,5.133 20.957,5.913ZM20.195,4.561C19.833,4.36 19.401,4.261 19.003,4.261C18.606,4.261 18.175,4.359 17.812,4.558L20.195,4.561Z" style="fill:white;"/>
        </g>
    </g>
</svg>
