<?xml version="1.0" encoding="UTF-8" standalone="no"?>
<!DOCTYPE svg PUBLIC "-//W3C//DTD SVG 1.1//EN" "http://www.w3.org/Graphics/SVG/1.1/DTD/svg11.dtd">
<svg width="100%" height="100%" viewBox="0 0 50 50" version="1.1" xmlns="http://www.w3.org/2000/svg" xmlns:xlink="http://www.w3.org/1999/xlink" xml:space="preserve" xmlns:serif="http://www.serif.com/" style="fill-rule:evenodd;clip-rule:evenodd;stroke-linejoin:round;stroke-miterlimit:2;">
    <rect id="sunny" x="0" y="0" width="50" height="50" style="fill:none;"/>
    <g id="sunny1" serif:id="sunny">
        <g id="sunny2" serif:id="sunny">
            <g transform="matrix(1.17639,0,0,1.17639,-6.22724,-5.34988)">
                <path d="M26.545,15.599C32.175,15.599 36.746,20.169 36.746,25.799C36.746,31.429 32.175,36 26.545,36C20.915,36 16.344,31.429 16.344,25.799C16.344,20.169 20.915,15.599 26.545,15.599ZM26.545,18.999C30.298,18.999 33.346,22.046 33.346,25.799C33.346,29.553 30.298,32.6 26.545,32.6C22.792,32.6 19.745,29.553 19.745,25.799C19.745,22.046 22.792,18.999 26.545,18.999Z" style="fill:white;"/>
            </g>
            <g transform="matrix(0.394178,-0.394178,-0.329101,-0.329101,41.1426,10.0379)">
                <path d="M-7.165,-3.578C-10.138,-3.578 -12.547,-1.174 -12.547,1.786C-12.547,4.761 -10.138,7.165 -7.165,7.165C-5.377,7.165 -1.786,5.374 1.804,1.786C-1.786,-1.787 -5.377,-3.578 -7.165,-3.578" style="fill:white;fill-rule:nonzero;"/>
            </g>
            <g transform="matrix(0,-0.557452,-0.465419,0,25.8347,3.00564)">
                <path d="M-7.165,-3.578C-10.138,-3.578 -12.547,-1.174 -12.547,1.786C-12.547,4.761 -10.138,7.165 -7.165,7.165C-5.377,7.165 -1.786,5.374 1.804,1.786C-1.786,-1.787 -5.377,-3.578 -7.165,-3.578" style="fill:white;fill-rule:nonzero;"/>
            </g>
            <g transform="matrix(-0.394178,-0.394178,-0.329101,0.329101,10.0379,8.8574)">
                <path d="M-7.165,-3.578C-10.138,-3.578 -12.547,-1.174 -12.547,1.786C-12.547,4.761 -10.138,7.165 -7.165,7.165C-5.377,7.165 -1.786,5.374 1.804,1.786C-1.786,-1.787 -5.377,-3.578 -7.165,-3.578" style="fill:white;fill-rule:nonzero;"/>
            </g>
            <g transform="matrix(-0.557452,-1.11022e-16,-8.32667e-17,0.465419,3.00564,24.1653)">
                <path d="M-7.165,-3.578C-10.138,-3.578 -12.547,-1.174 -12.547,1.786C-12.547,4.761 -10.138,7.165 -7.165,7.165C-5.377,7.165 -1.786,5.374 1.804,1.786C-1.786,-1.787 -5.377,-3.578 -7.165,-3.578" style="fill:white;fill-rule:nonzero;"/>
            </g>
            <g transform="matrix(-0.394178,0.394178,0.329101,0.329101,8.8574,39.9621)">
                <path d="M-7.165,-3.578C-10.138,-3.578 -12.547,-1.174 -12.547,1.786C-12.547,4.761 -10.138,7.165 -7.165,7.165C-5.377,7.165 -1.786,5.374 1.804,1.786C-1.786,-1.787 -5.377,-3.578 -7.165,-3.578" style="fill:white;fill-rule:nonzero;"/>
            </g>
            <g transform="matrix(-1.11022e-16,0.557452,0.465419,1.38778e-16,24.1653,46.9944)">
                <path d="M-7.165,-3.578C-10.138,-3.578 -12.547,-1.174 -12.547,1.786C-12.547,4.761 -10.138,7.165 -7.165,7.165C-5.377,7.165 -1.786,5.374 1.804,1.786C-1.786,-1.787 -5.377,-3.578 -7.165,-3.578" style="fill:white;fill-rule:nonzero;"/>
            </g>
            <g transform="matrix(0.394178,0.394178,0.329101,-0.329101,39.9621,41.1426)">
                <path d="M-7.165,-3.578C-10.138,-3.578 -12.547,-1.174 -12.547,1.786C-12.547,4.761 -10.138,7.165 -7.165,7.165C-5.377,7.165 -1.786,5.374 1.804,1.786C-1.786,-1.787 -5.377,-3.578 -7.165,-3.578" style="fill:white;fill-rule:nonzero;"/>
            </g>
            <g transform="matrix(0.557452,1.11022e-16,2.498e-16,-0.465419,46.9944,25.8347)">
                <path d="M-7.165,-3.578C-10.138,-3.578 -12.547,-1.174 -12.547,1.786C-12.547,4.761 -10.138,7.165 -7.165,7.165C-5.377,7.165 -1.786,5.374 1.804,1.786C-1.786,-1.787 -5.377,-3.578 -7.165,-3.578" style="fill:white;fill-rule:nonzero;"/>
            </g>
        </g>
    </g>
</svg>
