<?xml version="1.0" encoding="UTF-8"?><svg id="_層_3" xmlns="http://www.w3.org/2000/svg" viewBox="0 0 100 100"><defs><style>.cls-1{fill:#315859;}</style></defs><path class="cls-1" d="M49.08,.2l-.9,.28C26.26,7.26,11.53,27.24,11.53,50.2s14.72,42.94,36.64,49.72l.91,.28,41.66-41.66c.29,.03,.58,.05,.88,.05,4.63,0,8.39-3.75,8.39-8.39s-3.75-8.39-8.39-8.39c-.27,0-.54,.02-.81,.04L49.08,.2Zm23.64,28.04l-3.78,3.78-3.81-3.81,3.77-3.77,3.82,3.81Zm-24.51,68.39c-20.09-6.63-33.53-25.17-33.53-46.43S28.11,10.4,48.2,3.77l18.47,18.44-27.99,27.99,27.97,27.97-18.46,18.46Zm-.72-50.78l4.35,4.35-4.35,4.35-4.35-4.35,4.35-4.35Zm21.4,30.1l-3.96-3.96,4.02-4.02,3.96,3.96-4.02,4.02Zm27.97-25.75c0,2.89-2.35,5.24-5.24,5.24s-5.24-2.35-5.24-5.24,2.35-5.24,5.24-5.24,5.24,2.35,5.24,5.24Zm-13.63,0c0,3.09,1.68,5.78,4.17,7.24l-12.27,12.27-6.18-6.18-6.24,6.24-12.99-12.99,6.57-6.57-6.57-6.57,13.2-13.2,6.04,6.04,6-6,12.49,12.47c-2.51,1.45-4.21,4.16-4.21,7.26Z"/><path class="cls-1" d="M63.84,50.2c0,3.18,2.58,5.77,5.77,5.77s5.77-2.58,5.77-5.77-2.58-5.77-5.77-5.77-5.77,2.58-5.77,5.77Zm8.39,0c0,1.44-1.18,2.62-2.62,2.62s-2.62-1.18-2.62-2.62,1.18-2.62,2.62-2.62,2.62,1.18,2.62,2.62Z"/></svg>