<?xml version="1.0" encoding="UTF-8" standalone="no"?>
<!DOCTYPE svg PUBLIC "-//W3C//DTD SVG 1.1//EN" "http://www.w3.org/Graphics/SVG/1.1/DTD/svg11.dtd">
<svg width="100%" height="100%" viewBox="0 0 46 46" version="1.1" xmlns="http://www.w3.org/2000/svg" xmlns:xlink="http://www.w3.org/1999/xlink" xml:space="preserve" xmlns:serif="http://www.serif.com/" style="fill-rule:evenodd;clip-rule:evenodd;stroke-linejoin:round;stroke-miterlimit:2;">
    <g transform="matrix(-0.398574,0.69035,0.69035,0.398574,10.167,8.57286)">
        <path d="M12.903,-4.387C17.678,-4.387 21.549,-0.516 21.549,4.258C21.549,9.032 17.678,12.903 12.903,12.903C8.13,12.903 -4.259,4.258 -4.259,4.258C-4.259,4.258 8.13,-4.387 12.903,-4.387" style="fill:white;fill-rule:nonzero;"/>
    </g>
    <g transform="matrix(-0.398574,0.69035,0.69035,0.398574,39.8809,3.27575)">
        <path d="M12.903,-4.387C17.678,-4.387 21.549,-0.516 21.549,4.258C21.549,9.032 17.678,12.903 12.903,12.903C8.13,12.903 -4.259,4.258 -4.259,4.258C-4.259,4.258 8.13,-4.387 12.903,-4.387" style="fill:white;fill-rule:nonzero;"/>
    </g>
    <g transform="matrix(-0.398574,0.69035,0.69035,0.398574,23.2755,26.2469)">
        <path d="M12.903,-4.387C17.678,-4.387 21.549,-0.516 21.549,4.258C21.549,9.032 17.678,12.903 12.903,12.903C8.13,12.903 -4.259,4.258 -4.259,4.258C-4.259,4.258 8.13,-4.387 12.903,-4.387" style="fill:white;fill-rule:nonzero;"/>
    </g>
</svg>
