<?xml version="1.0" encoding="UTF-8" standalone="no"?>
<!DOCTYPE svg PUBLIC "-//W3C//DTD SVG 1.1//EN" "http://www.w3.org/Graphics/SVG/1.1/DTD/svg11.dtd">
<svg width="100%" height="100%" viewBox="0 0 50 50" version="1.1" xmlns="http://www.w3.org/2000/svg" xmlns:xlink="http://www.w3.org/1999/xlink" xml:space="preserve" xmlns:serif="http://www.serif.com/" style="fill-rule:evenodd;clip-rule:evenodd;stroke-linejoin:round;stroke-miterlimit:2;">
    <rect id="pop" x="0" y="0" width="50" height="50" style="fill:none;"/>
    <g id="pop1" serif:id="pop">
        <g transform="matrix(1.47443e-32,-1.39363,-1.39363,1.47443e-32,33.0136,20.5141)">
            <path d="M-7.165,-5.491C-5.13,-5.491 -0.933,-3.638 3.154,0.43L4.514,1.783L3.157,3.139C-0.931,7.225 -5.129,9.078 -7.165,9.078C-11.195,9.078 -14.46,5.819 -14.46,1.786C-14.46,-2.228 -11.197,-5.491 -7.165,-5.491ZM-7.165,-3.578C-10.138,-3.578 -12.547,-1.174 -12.547,1.786C-12.547,4.761 -10.138,7.165 -7.165,7.165C-5.377,7.165 -1.786,5.374 1.804,1.786C-1.786,-1.787 -5.377,-3.578 -7.165,-3.578Z" style="fill:white;"/>
        </g>
        <g transform="matrix(1.0321e-32,-0.975542,-0.975542,1.0321e-32,15.7496,11.7599)">
            <path d="M-7.165,-3.578C-10.138,-3.578 -12.547,-1.174 -12.547,1.786C-12.547,4.761 -10.138,7.165 -7.165,7.165C-5.377,7.165 -1.786,5.374 1.804,1.786C-1.786,-1.787 -5.377,-3.578 -7.165,-3.578Z" style="fill:white;fill-rule:nonzero;"/>
        </g>
    </g>
</svg>
